<mxfile host="app.diagrams.net" agent="Mozilla/5.0 (Macintosh; Intel Mac OS X 10_15_7) AppleWebKit/605.1.15 (KHTML, like Gecko) Version/18.3 Safari/605.1.15" version="26.2.13">
  <diagram name="Advanced User Use Case" id="advanced-user-case">
    <mxGraphModel dx="2181" dy="2100" grid="1" gridSize="10" guides="1" tooltips="1" connect="1" arrows="1" fold="1" page="1" pageScale="1" pageWidth="827" pageHeight="1169" math="0" shadow="0">
      <root>
        <mxCell id="0" />
        <mxCell id="1" parent="0" />
        <mxCell id="LVZY9OK_TpER_lkOl7NO-1012" value="" style="whiteSpace=wrap;html=1;aspect=fixed;glass=0;fillColor=none;" parent="1" vertex="1">
          <mxGeometry x="-520" y="-520" width="1230" height="1230" as="geometry" />
        </mxCell>
        <mxCell id="LVZY9OK_TpER_lkOl7NO-1013" value="&lt;b&gt;ASL Translation System&amp;nbsp;&lt;/b&gt;" style="text;html=1;align=center;verticalAlign=middle;whiteSpace=wrap;rounded=0;" parent="1" vertex="1">
          <mxGeometry x="480" y="-530" width="260" height="40" as="geometry" />
        </mxCell>
        <mxCell id="LVZY9OK_TpER_lkOl7NO-1014" value="&lt;b&gt;&lt;font style=&quot;font-size: 16px;&quot;&gt;System Boundary&lt;/font&gt;&lt;/b&gt;" style="text;html=1;align=center;verticalAlign=middle;whiteSpace=wrap;rounded=0;" parent="1" vertex="1">
          <mxGeometry x="-530" y="-550" width="220" height="30" as="geometry" />
        </mxCell>
        <mxCell id="LVZY9OK_TpER_lkOl7NO-1015" value="&lt;b&gt;&lt;font style=&quot;font-size: 16px;&quot;&gt;Admin UML&lt;/font&gt;&lt;/b&gt;" style="text;html=1;align=center;verticalAlign=middle;whiteSpace=wrap;rounded=0;" parent="1" vertex="1">
          <mxGeometry x="-20" y="-614" width="150" height="30" as="geometry" />
        </mxCell>
        <mxCell id="LVZY9OK_TpER_lkOl7NO-1038" style="edgeStyle=orthogonalEdgeStyle;rounded=0;orthogonalLoop=1;jettySize=auto;html=1;entryX=0.5;entryY=1;entryDx=0;entryDy=0;" parent="1" source="LVZY9OK_TpER_lkOl7NO-1016" target="LVZY9OK_TpER_lkOl7NO-1034" edge="1">
          <mxGeometry relative="1" as="geometry" />
        </mxCell>
        <mxCell id="LVZY9OK_TpER_lkOl7NO-1039" style="edgeStyle=orthogonalEdgeStyle;rounded=0;orthogonalLoop=1;jettySize=auto;html=1;entryX=0;entryY=0;entryDx=0;entryDy=0;" parent="1" source="LVZY9OK_TpER_lkOl7NO-1016" target="LVZY9OK_TpER_lkOl7NO-1035" edge="1">
          <mxGeometry relative="1" as="geometry" />
        </mxCell>
        <mxCell id="LVZY9OK_TpER_lkOl7NO-1093" style="edgeStyle=orthogonalEdgeStyle;rounded=0;orthogonalLoop=1;jettySize=auto;html=1;" parent="1" source="LVZY9OK_TpER_lkOl7NO-1016" target="LVZY9OK_TpER_lkOl7NO-1092" edge="1">
          <mxGeometry relative="1" as="geometry" />
        </mxCell>
        <mxCell id="LVZY9OK_TpER_lkOl7NO-1016" value="Actor" style="shape=umlActor;verticalLabelPosition=bottom;verticalAlign=top;html=1;outlineConnect=0;" parent="1" vertex="1">
          <mxGeometry x="-670" y="-180" width="30" height="120" as="geometry" />
        </mxCell>
        <mxCell id="LVZY9OK_TpER_lkOl7NO-1034" value="&lt;span style=&quot;text-align: start; font-size: medium;&quot;&gt;Register Account&lt;/span&gt;" style="ellipse;whiteSpace=wrap;html=1;" parent="1" vertex="1">
          <mxGeometry x="-460" y="-400" width="140" height="70" as="geometry" />
        </mxCell>
        <mxCell id="LVZY9OK_TpER_lkOl7NO-1035" value="&lt;span style=&quot;text-align: start; font-size: medium;&quot;&gt;Login&lt;/span&gt;" style="ellipse;whiteSpace=wrap;html=1;" parent="1" vertex="1">
          <mxGeometry x="-460" y="300" width="140" height="70" as="geometry" />
        </mxCell>
        <mxCell id="LVZY9OK_TpER_lkOl7NO-1036" value="Extends" style="endArrow=block;endSize=16;endFill=0;html=1;rounded=0;entryX=0;entryY=0.5;entryDx=0;entryDy=0;exitX=1;exitY=0.5;exitDx=0;exitDy=0;" parent="1" source="LVZY9OK_TpER_lkOl7NO-1034" target="LVZY9OK_TpER_lkOl7NO-1037" edge="1">
          <mxGeometry width="160" relative="1" as="geometry">
            <mxPoint x="-320" y="-365.91" as="sourcePoint" />
            <mxPoint x="-160" y="-365.91" as="targetPoint" />
          </mxGeometry>
        </mxCell>
        <mxCell id="LVZY9OK_TpER_lkOl7NO-1037" value="&lt;span style=&quot;text-align: start; font-size: medium;&quot;&gt;Email Verification&lt;/span&gt;" style="ellipse;whiteSpace=wrap;html=1;" parent="1" vertex="1">
          <mxGeometry x="-160" y="-400" width="140" height="70" as="geometry" />
        </mxCell>
        <mxCell id="LVZY9OK_TpER_lkOl7NO-1040" value="Extends" style="endArrow=block;endSize=16;endFill=0;html=1;rounded=0;exitX=0;exitY=0.5;exitDx=0;exitDy=0;entryX=0.947;entryY=0.345;entryDx=0;entryDy=0;entryPerimeter=0;" parent="1" source="LVZY9OK_TpER_lkOl7NO-1041" target="LVZY9OK_TpER_lkOl7NO-1037" edge="1">
          <mxGeometry width="160" relative="1" as="geometry">
            <mxPoint x="229.83000000000038" y="-420" as="sourcePoint" />
            <mxPoint x="-20" y="-380.49" as="targetPoint" />
            <Array as="points" />
          </mxGeometry>
        </mxCell>
        <mxCell id="LVZY9OK_TpER_lkOl7NO-1041" value="Verification Email" style="ellipse;whiteSpace=wrap;html=1;" parent="1" vertex="1">
          <mxGeometry x="220" y="-460" width="140" height="70" as="geometry" />
        </mxCell>
        <mxCell id="LVZY9OK_TpER_lkOl7NO-1042" value="Extends" style="endArrow=block;endSize=16;endFill=0;html=1;rounded=0;exitX=0.5;exitY=0;exitDx=0;exitDy=0;entryX=1;entryY=1;entryDx=0;entryDy=0;" parent="1" source="LVZY9OK_TpER_lkOl7NO-1043" target="LVZY9OK_TpER_lkOl7NO-1037" edge="1">
          <mxGeometry width="160" relative="1" as="geometry">
            <mxPoint y="-140" as="sourcePoint" />
            <mxPoint x="-30" y="-350" as="targetPoint" />
            <Array as="points" />
          </mxGeometry>
        </mxCell>
        <mxCell id="LVZY9OK_TpER_lkOl7NO-1043" value="Show Registration Error" style="ellipse;whiteSpace=wrap;html=1;" parent="1" vertex="1">
          <mxGeometry x="100" y="-390" width="140" height="70" as="geometry" />
        </mxCell>
        <mxCell id="LVZY9OK_TpER_lkOl7NO-1044" value="Extends" style="endArrow=block;endSize=16;endFill=0;html=1;rounded=0;entryX=1;entryY=0.5;entryDx=0;entryDy=0;exitX=0;exitY=0.5;exitDx=0;exitDy=0;" parent="1" source="LVZY9OK_TpER_lkOl7NO-1045" target="LVZY9OK_TpER_lkOl7NO-1041" edge="1">
          <mxGeometry width="160" relative="1" as="geometry">
            <mxPoint x="490" y="-450" as="sourcePoint" />
            <mxPoint x="360" y="-430.49" as="targetPoint" />
            <Array as="points" />
          </mxGeometry>
        </mxCell>
        <mxCell id="LVZY9OK_TpER_lkOl7NO-1045" value="Email Send Confirmation" style="ellipse;whiteSpace=wrap;html=1;" parent="1" vertex="1">
          <mxGeometry x="490" y="-480" width="140" height="70" as="geometry" />
        </mxCell>
        <mxCell id="LVZY9OK_TpER_lkOl7NO-1051" style="edgeStyle=orthogonalEdgeStyle;rounded=0;orthogonalLoop=1;jettySize=auto;html=1;entryX=0;entryY=0.5;entryDx=0;entryDy=0;" parent="1" source="LVZY9OK_TpER_lkOl7NO-1046" target="LVZY9OK_TpER_lkOl7NO-1050" edge="1">
          <mxGeometry relative="1" as="geometry" />
        </mxCell>
        <mxCell id="LVZY9OK_TpER_lkOl7NO-1046" value="Actor" style="shape=umlActor;verticalLabelPosition=bottom;verticalAlign=top;html=1;" parent="1" vertex="1">
          <mxGeometry x="-669" y="440" width="30" height="60" as="geometry" />
        </mxCell>
        <mxCell id="LVZY9OK_TpER_lkOl7NO-1049" value="Email Platform" style="text;html=1;align=center;verticalAlign=middle;whiteSpace=wrap;rounded=0;" parent="1" vertex="1">
          <mxGeometry x="-684" y="400" width="60" height="30" as="geometry" />
        </mxCell>
        <mxCell id="LVZY9OK_TpER_lkOl7NO-1050" value="Verification Link" style="ellipse;whiteSpace=wrap;html=1;" parent="1" vertex="1">
          <mxGeometry x="-450" y="560" width="140" height="70" as="geometry" />
        </mxCell>
        <mxCell id="LVZY9OK_TpER_lkOl7NO-1052" value="Extends" style="endArrow=block;endSize=16;endFill=0;html=1;rounded=0;exitX=1;exitY=0;exitDx=0;exitDy=0;entryX=0;entryY=0.5;entryDx=0;entryDy=0;" parent="1" source="LVZY9OK_TpER_lkOl7NO-1050" target="LVZY9OK_TpER_lkOl7NO-1053" edge="1">
          <mxGeometry width="160" relative="1" as="geometry">
            <mxPoint x="-320" y="504.09" as="sourcePoint" />
            <mxPoint x="-160" y="504.09" as="targetPoint" />
            <Array as="points">
              <mxPoint x="-240" y="504.09" />
            </Array>
          </mxGeometry>
        </mxCell>
        <mxCell id="LVZY9OK_TpER_lkOl7NO-1053" value="Verify User" style="ellipse;whiteSpace=wrap;html=1;" parent="1" vertex="1">
          <mxGeometry x="-160" y="470" width="140" height="70" as="geometry" />
        </mxCell>
        <mxCell id="LVZY9OK_TpER_lkOl7NO-1054" value="Extends" style="endArrow=block;endSize=16;endFill=0;html=1;rounded=0;exitX=0.701;exitY=-0.031;exitDx=0;exitDy=0;exitPerimeter=0;entryX=1;entryY=0.5;entryDx=0;entryDy=0;" parent="1" source="LVZY9OK_TpER_lkOl7NO-1053" target="LVZY9OK_TpER_lkOl7NO-1035" edge="1">
          <mxGeometry width="160" relative="1" as="geometry">
            <mxPoint x="-270" y="360" as="sourcePoint" />
            <mxPoint x="-120" y="360" as="targetPoint" />
            <Array as="points">
              <mxPoint x="-70" y="420" />
            </Array>
          </mxGeometry>
        </mxCell>
        <mxCell id="LVZY9OK_TpER_lkOl7NO-1055" value="" style="endArrow=block;dashed=1;endFill=0;endSize=12;html=1;rounded=0;exitX=1;exitY=0;exitDx=0;exitDy=0;" parent="1" source="LVZY9OK_TpER_lkOl7NO-1035" edge="1">
          <mxGeometry width="160" relative="1" as="geometry">
            <mxPoint x="-320" y="310" as="sourcePoint" />
            <mxPoint x="-160" y="310" as="targetPoint" />
          </mxGeometry>
        </mxCell>
        <mxCell id="LVZY9OK_TpER_lkOl7NO-1056" value="Email Verification&lt;div&gt;Check&lt;/div&gt;" style="ellipse;whiteSpace=wrap;html=1;" parent="1" vertex="1">
          <mxGeometry x="-160" y="270" width="140" height="70" as="geometry" />
        </mxCell>
        <mxCell id="LVZY9OK_TpER_lkOl7NO-1057" value="return" style="html=1;verticalAlign=bottom;endArrow=open;dashed=1;endSize=8;curved=0;rounded=0;exitX=0;exitY=0;exitDx=0;exitDy=0;" parent="1" source="LVZY9OK_TpER_lkOl7NO-1056" target="LVZY9OK_TpER_lkOl7NO-1037" edge="1">
          <mxGeometry relative="1" as="geometry">
            <mxPoint x="100" y="150" as="sourcePoint" />
            <mxPoint x="90" y="150" as="targetPoint" />
            <Array as="points">
              <mxPoint x="-120" y="120" />
            </Array>
          </mxGeometry>
        </mxCell>
        <mxCell id="LVZY9OK_TpER_lkOl7NO-1059" value="Extends" style="endArrow=block;endSize=16;endFill=0;html=1;rounded=0;" parent="1" edge="1">
          <mxGeometry width="160" relative="1" as="geometry">
            <mxPoint x="-20" y="304.09000000000003" as="sourcePoint" />
            <mxPoint x="140" y="304.09000000000003" as="targetPoint" />
          </mxGeometry>
        </mxCell>
        <mxCell id="LVZY9OK_TpER_lkOl7NO-1060" value="&lt;span style=&quot;text-align: start; font-size: medium;&quot;&gt;Profile&lt;/span&gt;" style="ellipse;whiteSpace=wrap;html=1;" parent="1" vertex="1">
          <mxGeometry x="180" y="170" width="140" height="70" as="geometry" />
        </mxCell>
        <mxCell id="LVZY9OK_TpER_lkOl7NO-1063" value="Extends" style="endArrow=block;endSize=16;endFill=0;html=1;rounded=0;entryX=0.496;entryY=0.553;entryDx=0;entryDy=0;entryPerimeter=0;" parent="1" target="LVZY9OK_TpER_lkOl7NO-1012" edge="1">
          <mxGeometry width="160" relative="1" as="geometry">
            <mxPoint x="-20" y="290" as="sourcePoint" />
            <mxPoint x="140" y="290" as="targetPoint" />
          </mxGeometry>
        </mxCell>
        <mxCell id="LVZY9OK_TpER_lkOl7NO-1064" value="&lt;div style=&quot;&quot;&gt;&lt;font size=&quot;3&quot;&gt;Prediction Dashboard&lt;/font&gt;&lt;/div&gt;" style="ellipse;whiteSpace=wrap;html=1;align=center;" parent="1" vertex="1">
          <mxGeometry x="90" y="110" width="140" height="70" as="geometry" />
        </mxCell>
        <mxCell id="LVZY9OK_TpER_lkOl7NO-1065" value="Extends" style="endArrow=block;endSize=16;endFill=0;html=1;rounded=0;" parent="1" edge="1">
          <mxGeometry width="160" relative="1" as="geometry">
            <mxPoint x="-40" y="330" as="sourcePoint" />
            <mxPoint x="130" y="360" as="targetPoint" />
          </mxGeometry>
        </mxCell>
        <mxCell id="LVZY9OK_TpER_lkOl7NO-1066" value="&lt;span style=&quot;font-size: medium;&quot;&gt;English-to-ASL Dashboard&lt;/span&gt;" style="ellipse;whiteSpace=wrap;html=1;align=center;" parent="1" vertex="1">
          <mxGeometry x="90" y="10" width="140" height="70" as="geometry" />
        </mxCell>
        <mxCell id="LVZY9OK_TpER_lkOl7NO-1067" value="Extends" style="endArrow=block;endSize=16;endFill=0;html=1;rounded=0;entryX=0.569;entryY=0.593;entryDx=0;entryDy=0;entryPerimeter=0;" parent="1" target="LVZY9OK_TpER_lkOl7NO-1012" edge="1">
          <mxGeometry width="160" relative="1" as="geometry">
            <mxPoint x="-10" y="290" as="sourcePoint" />
            <mxPoint x="80" y="250" as="targetPoint" />
          </mxGeometry>
        </mxCell>
        <mxCell id="LVZY9OK_TpER_lkOl7NO-1068" value="Prediction History&lt;div&gt;&lt;br&gt;&lt;/div&gt;" style="ellipse;whiteSpace=wrap;html=1;" parent="1" vertex="1">
          <mxGeometry x="130" y="250" width="140" height="70" as="geometry" />
        </mxCell>
        <mxCell id="LVZY9OK_TpER_lkOl7NO-1069" value="Extends" style="endArrow=block;endSize=16;endFill=0;html=1;rounded=0;entryX=0.504;entryY=0.472;entryDx=0;entryDy=0;entryPerimeter=0;" parent="1" target="LVZY9OK_TpER_lkOl7NO-1012" edge="1">
          <mxGeometry width="160" relative="1" as="geometry">
            <mxPoint x="-60" y="270" as="sourcePoint" />
            <mxPoint x="50" y="140" as="targetPoint" />
            <Array as="points">
              <mxPoint x="60" y="110" />
            </Array>
          </mxGeometry>
        </mxCell>
        <mxCell id="LVZY9OK_TpER_lkOl7NO-1070" value="User History" style="ellipse;whiteSpace=wrap;html=1;" parent="1" vertex="1">
          <mxGeometry x="120" y="340" width="140" height="70" as="geometry" />
        </mxCell>
        <mxCell id="LVZY9OK_TpER_lkOl7NO-1071" value="Extends" style="endArrow=block;endSize=16;endFill=0;html=1;rounded=0;" parent="1" edge="1">
          <mxGeometry width="160" relative="1" as="geometry">
            <mxPoint x="-60" y="340" as="sourcePoint" />
            <mxPoint x="100" y="450" as="targetPoint" />
          </mxGeometry>
        </mxCell>
        <mxCell id="LVZY9OK_TpER_lkOl7NO-1072" value="Sentence Generation History" style="ellipse;whiteSpace=wrap;html=1;" parent="1" vertex="1">
          <mxGeometry x="90" y="430" width="140" height="70" as="geometry" />
        </mxCell>
        <mxCell id="LVZY9OK_TpER_lkOl7NO-1073" value="Extends" style="endArrow=block;endSize=16;endFill=0;html=1;rounded=0;entryX=0.463;entryY=0.862;entryDx=0;entryDy=0;entryPerimeter=0;" parent="1" target="LVZY9OK_TpER_lkOl7NO-1012" edge="1">
          <mxGeometry width="160" relative="1" as="geometry">
            <mxPoint x="-100" y="340" as="sourcePoint" />
            <mxPoint x="60" y="450" as="targetPoint" />
          </mxGeometry>
        </mxCell>
        <mxCell id="LVZY9OK_TpER_lkOl7NO-1074" value="Video Generation History" style="ellipse;whiteSpace=wrap;html=1;" parent="1" vertex="1">
          <mxGeometry x="10" y="540" width="140" height="70" as="geometry" />
        </mxCell>
        <mxCell id="LVZY9OK_TpER_lkOl7NO-1075" value="" style="endArrow=block;dashed=1;endFill=0;endSize=12;html=1;rounded=0;entryX=0;entryY=0;entryDx=0;entryDy=0;" parent="1" source="LVZY9OK_TpER_lkOl7NO-1068" target="LVZY9OK_TpER_lkOl7NO-1081" edge="1">
          <mxGeometry width="160" relative="1" as="geometry">
            <mxPoint x="254" y="304" as="sourcePoint" />
            <mxPoint x="370" y="350" as="targetPoint" />
          </mxGeometry>
        </mxCell>
        <mxCell id="LVZY9OK_TpER_lkOl7NO-1076" value="" style="endArrow=block;dashed=1;endFill=0;endSize=12;html=1;rounded=0;entryX=0;entryY=0.5;entryDx=0;entryDy=0;exitX=1;exitY=1;exitDx=0;exitDy=0;" parent="1" source="LVZY9OK_TpER_lkOl7NO-1070" target="LVZY9OK_TpER_lkOl7NO-1081" edge="1">
          <mxGeometry width="160" relative="1" as="geometry">
            <mxPoint x="234" y="405" as="sourcePoint" />
            <mxPoint x="400" y="425" as="targetPoint" />
          </mxGeometry>
        </mxCell>
        <mxCell id="LVZY9OK_TpER_lkOl7NO-1077" value="" style="endArrow=block;dashed=1;endFill=0;endSize=12;html=1;rounded=0;exitX=1;exitY=0.5;exitDx=0;exitDy=0;entryX=0;entryY=1;entryDx=0;entryDy=0;" parent="1" source="LVZY9OK_TpER_lkOl7NO-1072" target="LVZY9OK_TpER_lkOl7NO-1081" edge="1">
          <mxGeometry width="160" relative="1" as="geometry">
            <mxPoint x="230" y="460" as="sourcePoint" />
            <mxPoint x="400" y="440" as="targetPoint" />
          </mxGeometry>
        </mxCell>
        <mxCell id="LVZY9OK_TpER_lkOl7NO-1080" value="" style="endArrow=block;dashed=1;endFill=0;endSize=12;html=1;rounded=0;exitX=1;exitY=0.5;exitDx=0;exitDy=0;entryX=0;entryY=1;entryDx=0;entryDy=0;" parent="1" source="LVZY9OK_TpER_lkOl7NO-1074" target="LVZY9OK_TpER_lkOl7NO-1081" edge="1">
          <mxGeometry width="160" relative="1" as="geometry">
            <mxPoint x="160" y="570" as="sourcePoint" />
            <mxPoint x="400" y="450" as="targetPoint" />
          </mxGeometry>
        </mxCell>
        <mxCell id="LVZY9OK_TpER_lkOl7NO-1081" value="Pagination, filter and search" style="ellipse;whiteSpace=wrap;html=1;" parent="1" vertex="1">
          <mxGeometry x="400" y="400" width="140" height="70" as="geometry" />
        </mxCell>
        <mxCell id="LVZY9OK_TpER_lkOl7NO-1082" value="" style="endArrow=block;dashed=1;endFill=0;endSize=12;html=1;rounded=0;entryX=0.24;entryY=0.047;entryDx=0;entryDy=0;entryPerimeter=0;exitX=1;exitY=0;exitDx=0;exitDy=0;" parent="1" source="LVZY9OK_TpER_lkOl7NO-1060" target="LVZY9OK_TpER_lkOl7NO-1083" edge="1">
          <mxGeometry width="160" relative="1" as="geometry">
            <mxPoint x="300" y="210" as="sourcePoint" />
            <mxPoint x="440" y="270" as="targetPoint" />
          </mxGeometry>
        </mxCell>
        <mxCell id="LVZY9OK_TpER_lkOl7NO-1083" value="update personal information and password" style="ellipse;whiteSpace=wrap;html=1;" parent="1" vertex="1">
          <mxGeometry x="410" y="270" width="140" height="70" as="geometry" />
        </mxCell>
        <mxCell id="LVZY9OK_TpER_lkOl7NO-1084" value="" style="endArrow=block;dashed=1;endFill=0;endSize=12;html=1;rounded=0;entryX=0;entryY=0.5;entryDx=0;entryDy=0;exitX=1;exitY=0.5;exitDx=0;exitDy=0;" parent="1" source="LVZY9OK_TpER_lkOl7NO-1064" target="LVZY9OK_TpER_lkOl7NO-1085" edge="1">
          <mxGeometry width="160" relative="1" as="geometry">
            <mxPoint x="230" y="140" as="sourcePoint" />
            <mxPoint x="390" y="140" as="targetPoint" />
          </mxGeometry>
        </mxCell>
        <mxCell id="LVZY9OK_TpER_lkOl7NO-1085" value="Gesture to ASL Prediction&amp;nbsp;" style="ellipse;whiteSpace=wrap;html=1;" parent="1" vertex="1">
          <mxGeometry x="390" y="100" width="140" height="70" as="geometry" />
        </mxCell>
        <mxCell id="LVZY9OK_TpER_lkOl7NO-1086" value="" style="endArrow=block;dashed=1;endFill=0;endSize=12;html=1;rounded=0;entryX=0.032;entryY=0.683;entryDx=0;entryDy=0;entryPerimeter=0;exitX=1;exitY=0;exitDx=0;exitDy=0;" parent="1" source="LVZY9OK_TpER_lkOl7NO-1064" target="LVZY9OK_TpER_lkOl7NO-1087" edge="1">
          <mxGeometry width="160" relative="1" as="geometry">
            <mxPoint x="220" y="130" as="sourcePoint" />
            <mxPoint x="330" y="60" as="targetPoint" />
          </mxGeometry>
        </mxCell>
        <mxCell id="LVZY9OK_TpER_lkOl7NO-1087" value="ASL TO English Sentence via gemini API" style="ellipse;whiteSpace=wrap;html=1;" parent="1" vertex="1">
          <mxGeometry x="330" y="20" width="140" height="70" as="geometry" />
        </mxCell>
        <mxCell id="LVZY9OK_TpER_lkOl7NO-1088" value="" style="endArrow=block;dashed=1;endFill=0;endSize=12;html=1;rounded=0;entryX=0;entryY=1;entryDx=0;entryDy=0;exitX=1;exitY=0;exitDx=0;exitDy=0;" parent="1" source="LVZY9OK_TpER_lkOl7NO-1066" target="LVZY9OK_TpER_lkOl7NO-1089" edge="1">
          <mxGeometry width="160" relative="1" as="geometry">
            <mxPoint x="210" y="20" as="sourcePoint" />
            <mxPoint x="350" y="-10" as="targetPoint" />
          </mxGeometry>
        </mxCell>
        <mxCell id="LVZY9OK_TpER_lkOl7NO-1089" value="English to ASL Gesture video preview" style="ellipse;whiteSpace=wrap;html=1;" parent="1" vertex="1">
          <mxGeometry x="344" y="-69" width="140" height="70" as="geometry" />
        </mxCell>
        <mxCell id="LVZY9OK_TpER_lkOl7NO-1090" value="" style="endArrow=block;dashed=1;endFill=0;endSize=12;html=1;rounded=0;exitX=0.746;exitY=0.021;exitDx=0;exitDy=0;exitPerimeter=0;entryX=0.5;entryY=1;entryDx=0;entryDy=0;" parent="1" source="LVZY9OK_TpER_lkOl7NO-1066" target="LVZY9OK_TpER_lkOl7NO-1091" edge="1">
          <mxGeometry width="160" relative="1" as="geometry">
            <mxPoint x="190" as="sourcePoint" />
            <mxPoint x="310" y="-70" as="targetPoint" />
          </mxGeometry>
        </mxCell>
        <mxCell id="LVZY9OK_TpER_lkOl7NO-1091" value="English to ASL Gesture Video Download" style="ellipse;whiteSpace=wrap;html=1;" parent="1" vertex="1">
          <mxGeometry x="260" y="-139" width="140" height="70" as="geometry" />
        </mxCell>
        <mxCell id="LVZY9OK_TpER_lkOl7NO-1092" value="Forgot Passord" style="ellipse;whiteSpace=wrap;html=1;" parent="1" vertex="1">
          <mxGeometry x="-340" y="-155" width="140" height="70" as="geometry" />
        </mxCell>
        <mxCell id="LVZY9OK_TpER_lkOl7NO-1094" value="Extends" style="endArrow=block;endSize=16;endFill=0;html=1;rounded=0;exitX=0.298;exitY=0.897;exitDx=0;exitDy=0;exitPerimeter=0;entryX=0.643;entryY=0.143;entryDx=0;entryDy=0;entryPerimeter=0;" parent="1" source="LVZY9OK_TpER_lkOl7NO-1092" target="LVZY9OK_TpER_lkOl7NO-1095" edge="1">
          <mxGeometry width="160" relative="1" as="geometry">
            <mxPoint x="-350" y="-40" as="sourcePoint" />
            <mxPoint x="-190" y="-30" as="targetPoint" />
          </mxGeometry>
        </mxCell>
        <mxCell id="LVZY9OK_TpER_lkOl7NO-1095" value="Email Verification" style="ellipse;whiteSpace=wrap;html=1;" parent="1" vertex="1">
          <mxGeometry x="-320" y="-30" width="140" height="70" as="geometry" />
        </mxCell>
        <mxCell id="LVZY9OK_TpER_lkOl7NO-1096" value="Extends" style="endArrow=block;endSize=16;endFill=0;html=1;rounded=0;exitX=0.376;exitY=1.034;exitDx=0;exitDy=0;entryX=0.24;entryY=0.164;entryDx=0;entryDy=0;entryPerimeter=0;exitPerimeter=0;" parent="1" source="LVZY9OK_TpER_lkOl7NO-1095" target="LVZY9OK_TpER_lkOl7NO-1097" edge="1">
          <mxGeometry x="0.0706" y="40" width="160" relative="1" as="geometry">
            <mxPoint x="-288" y="-82" as="sourcePoint" />
            <mxPoint x="-220" y="-10" as="targetPoint" />
            <mxPoint as="offset" />
          </mxGeometry>
        </mxCell>
        <mxCell id="LVZY9OK_TpER_lkOl7NO-1097" value="Email Verification Confirmation" style="ellipse;whiteSpace=wrap;html=1;" parent="1" vertex="1">
          <mxGeometry x="-320" y="110" width="140" height="70" as="geometry" />
        </mxCell>
        <mxCell id="LVZY9OK_TpER_lkOl7NO-1098" value="Extends" style="endArrow=block;endSize=16;endFill=0;html=1;rounded=0;exitX=0;exitY=0;exitDx=0;exitDy=0;entryX=1;entryY=1;entryDx=0;entryDy=0;" parent="1" source="LVZY9OK_TpER_lkOl7NO-1053" target="LVZY9OK_TpER_lkOl7NO-1099" edge="1">
          <mxGeometry width="160" relative="1" as="geometry">
            <mxPoint x="-410" y="610" as="sourcePoint" />
            <mxPoint x="-250" y="610" as="targetPoint" />
          </mxGeometry>
        </mxCell>
        <mxCell id="LVZY9OK_TpER_lkOl7NO-1099" value="password reset page" style="ellipse;whiteSpace=wrap;html=1;" parent="1" vertex="1">
          <mxGeometry x="-490" y="450" width="140" height="70" as="geometry" />
        </mxCell>
        <mxCell id="LVZY9OK_TpER_lkOl7NO-1102" value="Extends" style="endArrow=block;endSize=16;endFill=0;html=1;rounded=0;exitX=0.5;exitY=0;exitDx=0;exitDy=0;entryX=0;entryY=0.5;entryDx=0;entryDy=0;" parent="1" source="LVZY9OK_TpER_lkOl7NO-1099" target="LVZY9OK_TpER_lkOl7NO-1103" edge="1">
          <mxGeometry width="160" relative="1" as="geometry">
            <mxPoint x="-460" y="430" as="sourcePoint" />
            <mxPoint x="-300" y="430" as="targetPoint" />
          </mxGeometry>
        </mxCell>
        <mxCell id="LVZY9OK_TpER_lkOl7NO-1103" value="password reset confirmation" style="ellipse;whiteSpace=wrap;html=1;" parent="1" vertex="1">
          <mxGeometry x="-310" y="400" width="140" height="70" as="geometry" />
        </mxCell>
        <mxCell id="LVZY9OK_TpER_lkOl7NO-1104" value="Extends" style="endArrow=block;endSize=16;endFill=0;html=1;rounded=0;exitX=0.071;exitY=0.294;exitDx=0;exitDy=0;exitPerimeter=0;entryX=1;entryY=1;entryDx=0;entryDy=0;" parent="1" source="LVZY9OK_TpER_lkOl7NO-1103" target="LVZY9OK_TpER_lkOl7NO-1035" edge="1">
          <mxGeometry width="160" relative="1" as="geometry">
            <mxPoint x="-460" y="398.18" as="sourcePoint" />
            <mxPoint x="-300" y="398.18" as="targetPoint" />
            <Array as="points">
              <mxPoint x="-350" y="390" />
            </Array>
          </mxGeometry>
        </mxCell>
        <mxCell id="wM5ew1Cirk2p3UUm1jzB-3" value="" style="ellipse;whiteSpace=wrap;html=1;" vertex="1" parent="1">
          <mxGeometry x="80" y="-90" width="120" height="80" as="geometry" />
        </mxCell>
        <mxCell id="wM5ew1Cirk2p3UUm1jzB-4" value="User&#39;s Prediction History&lt;div&gt;&lt;br&gt;&lt;/div&gt;" style="text;html=1;align=center;verticalAlign=middle;whiteSpace=wrap;rounded=0;" vertex="1" parent="1">
          <mxGeometry x="110" y="-65" width="60" height="30" as="geometry" />
        </mxCell>
        <mxCell id="wM5ew1Cirk2p3UUm1jzB-5" value="Extends" style="endArrow=block;endSize=16;endFill=0;html=1;rounded=0;entryX=0.058;entryY=0.688;entryDx=0;entryDy=0;entryPerimeter=0;exitX=0.643;exitY=0;exitDx=0;exitDy=0;exitPerimeter=0;" edge="1" parent="1" source="LVZY9OK_TpER_lkOl7NO-1056" target="wM5ew1Cirk2p3UUm1jzB-3">
          <mxGeometry width="160" relative="1" as="geometry">
            <mxPoint x="-100" y="219" as="sourcePoint" />
            <mxPoint x="60" y="10" as="targetPoint" />
          </mxGeometry>
        </mxCell>
        <mxCell id="wM5ew1Cirk2p3UUm1jzB-6" value="User’s History" style="ellipse;whiteSpace=wrap;html=1;" vertex="1" parent="1">
          <mxGeometry x="60" y="-180" width="120" height="80" as="geometry" />
        </mxCell>
        <mxCell id="wM5ew1Cirk2p3UUm1jzB-7" value="Extends" style="endArrow=block;endSize=16;endFill=0;html=1;rounded=0;exitX=0.5;exitY=0;exitDx=0;exitDy=0;" edge="1" parent="1" source="LVZY9OK_TpER_lkOl7NO-1056" target="wM5ew1Cirk2p3UUm1jzB-6">
          <mxGeometry width="160" relative="1" as="geometry">
            <mxPoint x="-110" y="280" as="sourcePoint" />
            <mxPoint x="60" y="-107.5" as="targetPoint" />
          </mxGeometry>
        </mxCell>
        <mxCell id="wM5ew1Cirk2p3UUm1jzB-8" value="Users’s sentence Generation History" style="ellipse;whiteSpace=wrap;html=1;" vertex="1" parent="1">
          <mxGeometry x="50" y="-270" width="120" height="80" as="geometry" />
        </mxCell>
        <mxCell id="wM5ew1Cirk2p3UUm1jzB-9" value="Extends" style="endArrow=block;endSize=16;endFill=0;html=1;rounded=0;exitX=0.307;exitY=0.057;exitDx=0;exitDy=0;exitPerimeter=0;entryX=0.217;entryY=0.925;entryDx=0;entryDy=0;entryPerimeter=0;" edge="1" parent="1" source="LVZY9OK_TpER_lkOl7NO-1056" target="wM5ew1Cirk2p3UUm1jzB-8">
          <mxGeometry width="160" relative="1" as="geometry">
            <mxPoint x="-149" y="212" as="sourcePoint" />
            <mxPoint x="60" y="-170" as="targetPoint" />
          </mxGeometry>
        </mxCell>
        <mxCell id="wM5ew1Cirk2p3UUm1jzB-10" value="User’s Video Generation History" style="ellipse;whiteSpace=wrap;html=1;" vertex="1" parent="1">
          <mxGeometry x="-60" y="-320" width="120" height="80" as="geometry" />
        </mxCell>
        <mxCell id="wM5ew1Cirk2p3UUm1jzB-11" value="Extends" style="endArrow=block;endSize=16;endFill=0;html=1;rounded=0;exitX=0.236;exitY=0.1;exitDx=0;exitDy=0;exitPerimeter=0;entryX=0.625;entryY=0.988;entryDx=0;entryDy=0;entryPerimeter=0;" edge="1" parent="1" source="LVZY9OK_TpER_lkOl7NO-1056" target="wM5ew1Cirk2p3UUm1jzB-10">
          <mxGeometry width="160" relative="1" as="geometry">
            <mxPoint x="-160" y="250" as="sourcePoint" />
            <mxPoint x="33" y="-220" as="targetPoint" />
          </mxGeometry>
        </mxCell>
        <mxCell id="wM5ew1Cirk2p3UUm1jzB-12" value="Pagination, filtre, search and delete&lt;div&gt;&lt;br&gt;&lt;/div&gt;" style="ellipse;whiteSpace=wrap;html=1;" vertex="1" parent="1">
          <mxGeometry x="320" y="-310" width="140" height="70" as="geometry" />
        </mxCell>
        <mxCell id="wM5ew1Cirk2p3UUm1jzB-13" value="" style="endArrow=block;dashed=1;endFill=0;endSize=12;html=1;rounded=0;exitX=0.95;exitY=0.313;exitDx=0;exitDy=0;exitPerimeter=0;entryX=0.436;entryY=0.986;entryDx=0;entryDy=0;entryPerimeter=0;" edge="1" parent="1" source="wM5ew1Cirk2p3UUm1jzB-3" target="wM5ew1Cirk2p3UUm1jzB-12">
          <mxGeometry width="160" relative="1" as="geometry">
            <mxPoint x="200" y="-100" as="sourcePoint" />
            <mxPoint x="336" y="-180" as="targetPoint" />
          </mxGeometry>
        </mxCell>
        <mxCell id="wM5ew1Cirk2p3UUm1jzB-14" value="" style="endArrow=block;dashed=1;endFill=0;endSize=12;html=1;rounded=0;exitX=1;exitY=0.5;exitDx=0;exitDy=0;entryX=0.079;entryY=0.8;entryDx=0;entryDy=0;entryPerimeter=0;" edge="1" parent="1" source="wM5ew1Cirk2p3UUm1jzB-6" target="wM5ew1Cirk2p3UUm1jzB-12">
          <mxGeometry width="160" relative="1" as="geometry">
            <mxPoint x="170" y="-85" as="sourcePoint" />
            <mxPoint x="357" y="-261" as="targetPoint" />
          </mxGeometry>
        </mxCell>
        <mxCell id="wM5ew1Cirk2p3UUm1jzB-15" value="" style="endArrow=block;dashed=1;endFill=0;endSize=12;html=1;rounded=0;exitX=0.942;exitY=0.713;exitDx=0;exitDy=0;entryX=0;entryY=0.5;entryDx=0;entryDy=0;exitPerimeter=0;" edge="1" parent="1" source="wM5ew1Cirk2p3UUm1jzB-8" target="wM5ew1Cirk2p3UUm1jzB-12">
          <mxGeometry width="160" relative="1" as="geometry">
            <mxPoint x="160" y="-196" as="sourcePoint" />
            <mxPoint x="311" y="-310" as="targetPoint" />
          </mxGeometry>
        </mxCell>
        <mxCell id="wM5ew1Cirk2p3UUm1jzB-16" value="" style="endArrow=block;dashed=1;endFill=0;endSize=12;html=1;rounded=0;exitX=1.008;exitY=0.413;exitDx=0;exitDy=0;entryX=0.079;entryY=0.257;entryDx=0;entryDy=0;exitPerimeter=0;entryPerimeter=0;" edge="1" parent="1" source="wM5ew1Cirk2p3UUm1jzB-10" target="wM5ew1Cirk2p3UUm1jzB-12">
          <mxGeometry width="160" relative="1" as="geometry">
            <mxPoint x="173" y="-203" as="sourcePoint" />
            <mxPoint x="330" y="-265" as="targetPoint" />
          </mxGeometry>
        </mxCell>
        <mxCell id="wM5ew1Cirk2p3UUm1jzB-17" value="Manage User&#39;s" style="ellipse;whiteSpace=wrap;html=1;" vertex="1" parent="1">
          <mxGeometry x="-340" y="210" width="120" height="80" as="geometry" />
        </mxCell>
        <mxCell id="wM5ew1Cirk2p3UUm1jzB-18" value="Extends" style="endArrow=block;endSize=16;endFill=0;html=1;rounded=0;entryX=0.975;entryY=0.375;entryDx=0;entryDy=0;entryPerimeter=0;exitX=0.043;exitY=0.357;exitDx=0;exitDy=0;exitPerimeter=0;" edge="1" parent="1" source="LVZY9OK_TpER_lkOl7NO-1056" target="wM5ew1Cirk2p3UUm1jzB-17">
          <mxGeometry width="160" relative="1" as="geometry">
            <mxPoint x="-30" y="340" as="sourcePoint" />
            <mxPoint x="140" y="370" as="targetPoint" />
          </mxGeometry>
        </mxCell>
        <mxCell id="wM5ew1Cirk2p3UUm1jzB-19" value="Fliter, pagination and delete user&#39;s" style="ellipse;whiteSpace=wrap;html=1;" vertex="1" parent="1">
          <mxGeometry x="-430" y="30" width="120" height="80" as="geometry" />
        </mxCell>
        <mxCell id="wM5ew1Cirk2p3UUm1jzB-21" value="" style="endArrow=block;dashed=1;endFill=0;endSize=12;html=1;rounded=0;entryX=0.5;entryY=1;entryDx=0;entryDy=0;exitX=0.083;exitY=0.313;exitDx=0;exitDy=0;exitPerimeter=0;" edge="1" parent="1" source="wM5ew1Cirk2p3UUm1jzB-17" target="wM5ew1Cirk2p3UUm1jzB-19">
          <mxGeometry width="160" relative="1" as="geometry">
            <mxPoint x="-430" y="140" as="sourcePoint" />
            <mxPoint x="-285" y="233" as="targetPoint" />
          </mxGeometry>
        </mxCell>
      </root>
    </mxGraphModel>
  </diagram>
</mxfile>
